<svg viewBox="0 0 856.56 149.81" xmlns="http://www.w3.org/2000/svg" data-name="Layer 2" id="Layer_2">
  <defs>
    <style>
      .cls-1 {
        fill: #134431;
        stroke-width: 0px;
      }
    </style>
  </defs>
  <g data-name="Layer 1" id="Layer_1-2">
    <g>
      <path d="M90.55,115.48c-11.34-.78-23.45-.78-34.79,0,.62-17.55.47-35.1-.16-52.65-.31-11.34-1.86-18.48-8.7-18.48-7.61,0-11.8,8.85-12.12,23.92-.31,15.22,0,30.44,0,47.22-11.65-.78-23.3-.78-34.79,0C.78,80.84,1.86,33.78,0,1.16,10.72-.39,23.14-.39,33.86,1.16c-1.4,13.2-2.17,35.57-2.8,54.36,3.88-17.4,16.62-23.92,31.53-23.92,16.46,0,28.58,9.79,27.8,36.66-.31,15.69-.16,31.37.16,47.22Z" class="cls-1"></path>
      <path d="M136.99,75.41v.16c0,27.49,3.42,37.12,12.11,37.12,6.06,0,9.63-6.06,9.63-16.62,0-3.42-.16-5.44-.62-7.61l3.11-1.24,29.51,4.19c-3.42,17.86-20.66,26.4-42.25,26.4-30.29,0-47.22-16.93-47.22-43.02s17.4-43.18,46.44-43.18,43.33,17.86,43.18,42.09l-3.88,1.71h-50.01ZM137.14,68.42h19.26c.78-3.26.93-8.08.93-12.58,0-12.27-2.49-19.26-8.85-19.26s-10.72,6.83-11.34,31.84Z" class="cls-1"></path>
      <path d="M285.01,33.94c-12.11,29.51-25.16,59.18-33.7,79.21-10.87,24.7-20.66,36.66-36.81,36.66-11.18,0-18.95-4.35-23.61-11.96l20.19-16,2.02.16c.93,6.68,4.66,12.11,11.18,12.11,9.16,0,14.91-8.85,17.55-17.55-5.9.16-16.46-.16-22.21-.93-8.85-26.56-20.19-57.31-30.6-81.7,12.27.78,25.16.78,37.59,0,5.28,21.12,12.12,46.75,19.1,68.96,6.52-25.16,11.34-51.72,13.82-68.96,8.7.62,16.77.62,25.47,0Z" class="cls-1"></path>
      <path d="M321.66,33.94h15.53l15.53,20.04c4.04-13.05,12.43-22.37,28.73-22.37,11.96,0,21.43,7.61,21.43,22.68,0,2.02-.16,4.19-.62,6.52l-29.36,7.46-2.33-.62c3.88-14.29,1.86-23.3-3.42-23.3-6.83,0-10.56,10.41-10.56,22.99-.31,15.69-.31,32,0,48.15-11.65-.78-23.3-.78-34.95,0,.78-27.49.78-54.05,0-81.54Z" class="cls-1"></path>
      <path d="M406.46,74.32c0-25.78,17.71-42.71,47.22-42.71s47.37,16.93,47.37,42.71-17.71,43.33-47.22,43.33-47.37-17.24-47.37-43.33ZM465.33,73.7c0-29.2-4.04-36.97-11.65-36.97-7.15,0-11.49,7.92-11.49,37.59s4.35,38.21,11.65,38.21,11.49-8.08,11.49-38.83Z" class="cls-1"></path>
      <path d="M508.19,74.32c0-25.78,17.71-42.71,47.22-42.71s47.37,16.93,47.37,42.71-17.71,43.33-47.22,43.33-47.37-17.24-47.37-43.33ZM567.06,73.7c0-29.2-4.04-36.97-11.65-36.97-7.15,0-11.49,7.92-11.49,37.59s4.35,38.21,11.65,38.21,11.49-8.08,11.49-38.83Z" class="cls-1"></path>
      <path d="M644.25,41.86c-.16,17.86-.16,36.5,0,48.61.16,9.79,1.09,16.62,7.14,16.62,4.5,0,6.68-4.81,6.68-10.25,0-1.24-.16-2.49-.47-3.73,2.48.78,4.66,1.4,7.46,1.4,0,15.69-9.94,23.14-26.56,23.14-11.96,0-27.49-4.19-27.34-27.34,0-8.39.62-30.6,0-48.15-2.95,0-5.9,0-9.01.16.31-4.35.47-3.42.16-8.39,3.42.16,6.68.16,9.94.31l4.04-21.12c10.72.78,17.55.78,28.73,0-.31,6.37-.47,13.67-.62,21.28l21.59-.47c-.31,4.97-.47,4.04-.16,8.39l-21.59-.47Z" class="cls-1"></path>
      <path d="M704.04,75.41v.16c0,27.49,3.42,37.12,12.11,37.12,6.06,0,9.63-6.06,9.63-16.62,0-3.42-.16-5.44-.62-7.61l3.11-1.24,29.51,4.19c-3.42,17.86-20.66,26.4-42.25,26.4-30.29,0-47.22-16.93-47.22-43.02s17.4-43.18,46.44-43.18,43.33,17.86,43.18,42.09l-3.88,1.71h-50.01ZM704.2,68.42h19.26c.78-3.26.93-8.08.93-12.58,0-12.27-2.49-19.26-8.85-19.26s-10.72,6.83-11.34,31.84Z" class="cls-1"></path>
      <path d="M763.37,75.25c0-26.09,12.58-43.65,35.26-43.65,12.89,0,22.52,7.3,25.63,17.24-1.09-14.44-.93-33.08-2.17-47.68,10.56-1.55,23.76-1.55,34.48,0-1.24,32.77-1.86,79.52-.78,114.31h-15.22l-15.69-20.19c-3.42,12.58-12.58,22.37-28.11,22.52-19.88.16-33.39-15.53-33.39-42.56ZM821.93,74.32c.31-19.1-3.88-32-12.27-32-7.92,0-11.34,10.72-11.34,31.53s3.26,31.06,11.03,31.06,12.43-11.34,12.58-30.6Z" class="cls-1"></path>
    </g>
  </g>
</svg>